<?xml version="1.0" standalone="no"?>
<!DOCTYPE svg PUBLIC "-//W3C//DTD SVG 20010904//EN"
 "http://www.w3.org/TR/2001/REC-SVG-20010904/DTD/svg10.dtd">
<svg version="1.0" xmlns="http://www.w3.org/2000/svg"
 width="700.000000pt" height="700.000000pt" viewBox="0 0 700.000000 700.000000"
 preserveAspectRatio="xMidYMid meet">
<metadata>
Created by potrace 1.11, written by Peter Selinger 2001-2013
</metadata>
<g transform="translate(0.000000,700.000000) scale(0.100000,-0.100000)"
fill="#000000" stroke="none">
<path d="M1315 6990 c-98 -24 -227 -100 -307 -184 -176 -183 -218 -434 -114
-670 14 -31 23 -56 22 -56 -2 0 -29 11 -60 25 -95 42 -189 58 -292 52 -96 -7
-199 -38 -254 -77 -15 -11 -31 -20 -34 -20 -23 0 -140 -121 -185 -190 -59 -90
-85 -177 -87 -284 -2 -132 26 -224 135 -443 28 -56 51 -104 51 -107 0 -2 17
-42 38 -88 21 -46 44 -99 51 -118 7 -19 17 -44 22 -55 66 -155 155 -461 175
-604 2 -18 6 -36 8 -40 2 -3 7 -40 11 -81 4 -41 9 -77 10 -80 8 -13 18 -274
19 -465 0 -192 -9 -414 -18 -475 -3 -14 -7 -47 -10 -75 -3 -27 -8 -59 -10 -70
-2 -11 -7 -40 -11 -65 -29 -186 -160 -603 -227 -725 -12 -22 -21 -41 -20 -42
2 -5 -30 -77 -106 -238 -98 -207 -122 -291 -118 -410 5 -115 7 -123 58 -225
60 -119 162 -221 278 -278 174 -86 346 -87 528 -6 29 13 55 24 57 24 3 0 -5
-17 -18 -37 -41 -68 -70 -189 -68 -288 3 -181 95 -359 244 -470 156 -118 302
-149 482 -105 44 11 89 24 100 29 11 5 70 32 130 61 450 213 791 330 1090 374
22 4 54 8 70 11 106 17 308 26 565 25 262 -1 410 -8 520 -25 14 -2 57 -9 95
-15 300 -47 675 -177 1073 -373 61 -31 112 -53 112 -50 0 3 6 1 13 -5 7 -6 48
-20 92 -32 151 -39 297 -20 422 57 159 98 262 232 299 390 30 129 16 267 -41
392 -14 29 -25 55 -25 57 0 3 17 -4 38 -14 109 -55 238 -76 367 -59 177 24
346 144 442 315 107 191 95 372 -41 642 -98 193 -230 519 -285 705 -42 142
-82 324 -97 445 -3 30 -8 63 -10 73 -22 120 -22 814 0 957 6 33 18 120 21 145
2 16 40 201 49 240 49 207 186 561 331 854 81 165 99 230 99 356 0 117 -11
165 -60 253 -135 245 -393 372 -652 322 -44 -8 -107 -30 -189 -67 -8 -3 -2 18
12 49 52 114 70 242 51 362 -11 67 -18 89 -48 150 -64 132 -162 230 -292 295
-101 51 -148 61 -261 57 -107 -4 -186 -28 -361 -111 -165 -79 -356 -162 -439
-192 -38 -14 -83 -31 -100 -38 -76 -33 -386 -116 -485 -130 -25 -3 -70 -10
-100 -15 -61 -10 -173 -21 -265 -26 -75 -4 -554 -4 -615 0 -125 9 -207 16
-225 20 -17 3 -63 10 -140 21 -11 2 -63 13 -115 25 -265 62 -449 128 -800 289
-129 60 -251 113 -270 119 -19 6 -51 16 -70 23 -47 15 -205 20 -255 9z"/>
</g>
</svg>
